<svg id="Capa_1" enable-background="new 0 0 512 512" height="512" viewBox="0 0 512 512" width="512" xmlns="http://www.w3.org/2000/svg"><path id="XMLID_1794_" d="m482 410h-452c-11.046 0-20-8.954-20-20v-360c0-11.046 8.954-20 20-20h452c11.046 0 20 8.954 20 20v360c0 11.046-8.954 20-20 20z" fill="#f9f9f9"/><path id="XMLID_1793_" d="m482 10h-452c-11.046 0-20 8.954-20 20v60h492v-60c0-11.046-8.954-20-20-20z" fill="#fff"/><path id="XMLID_1792_" d="m502 90h-492v-60c0-11.046 8.954-20 20-20h452c11.046 0 20 8.954 20 20z" fill="#91def5"/><path id="XMLID_80_" d="m12.998 90h486.004" fill="#231f20"/><g fill="#ff9d6c"><path id="XMLID_1953_" d="m352.533 295.134v114.948l54.734 39.585v-63.944c0-38.02-21.078-72.905-54.734-90.589z"/><path id="XMLID_2292_" d="m159.467 295.134v114.948l-54.734 39.585v-63.944c0-38.02 21.078-72.905 54.734-90.589z"/><path id="XMLID_1949_" d="m351.635 410.081-20.27 44h-151.612l-20.27-44z"/></g><path id="XMLID_1952_" d="m255.993 138.506c-59.853 35.716-96.51 100.278-96.51 169.977v101.598h96.51.029 96.51v-101.58c0-69.708-36.667-134.278-96.533-169.991z" fill="#91def5"/><circle id="XMLID_866_" cx="256.086" cy="309.846" fill="#fff" r="49.846"/><path id="XMLID_258_" d="m482 0h-452c-16.542 0-30 13.458-30 30v360c0 16.542 13.458 30 30 30h64.733v29.667c0 3.756 2.105 7.196 5.45 8.905 1.436.733 2.995 1.095 4.549 1.095 2.067 0 4.124-.64 5.861-1.897l44.892-32.467 15.185 32.963c1.633 3.545 5.179 5.816 9.083 5.816h18.247v37.918c0 5.523 4.477 10 10 10s10-4.477 10-10v-37.918h28v37.918c0 5.523 4.477 10 10 10s10-4.477 10-10v-37.918h28v37.918c0 5.523 4.477 10 10 10s10-4.477 10-10v-37.918h17.366c3.903 0 7.45-2.271 9.083-5.816l15.405-33.441 45.553 32.945c1.738 1.257 3.794 1.897 5.861 1.897 1.553 0 3.113-.362 4.549-1.095 3.345-1.709 5.45-5.149 5.45-8.905v-29.667h64.733c16.542 0 30-13.458 30-30v-95c0-5.523-4.477-10-10-10s-10 4.477-10 10v95c0 5.514-4.486 10-10 10h-64.733v-14.278c0-40.18-21.216-76.884-55.686-96.99-2.788-29.086-11.691-57.419-26.169-82.914-17.743-31.244-43.431-57.489-74.289-75.897-.054-.032-.107-.063-.162-.095l-.007-.004c-3.132-1.79-6.986-1.753-10.086.095-30.851 18.41-56.533 44.654-74.271 75.895-14.475 25.494-23.376 53.826-26.163 82.91-34.48 20.104-55.701 56.813-55.701 96.999v14.279h-64.733c-5.514 0-10-4.486-10-10v-290h472v105c0 5.523 4.477 10 10 10s10-4.477 10-10v-175c0-16.542-13.458-30-30-30zm-157.038 444.082h-138.806l-11.056-24h160.919zm72.305-58.36v44.371l-34.734-25.121v-91.435c21.758 17.316 34.734 43.691 34.734 72.185zm-227.784-77.239c0-63.808 33-123.877 86.511-158.219 53.531 34.339 86.539 94.414 86.539 158.236v91.581h-173.05zm-54.75 77.239c0-28.494 12.976-54.869 34.734-72.185v91.435l-34.734 25.121zm-94.733-305.722v-50c0-5.514 4.486-10 10-10h452c5.514 0 10 4.486 10 10v50z"/><path id="XMLID_851_" d="m448 40h-216c-5.523 0-10 4.477-10 10s4.477 10 10 10h216c5.523 0 10-4.477 10-10s-4.477-10-10-10z"/><path id="XMLID_877_" d="m108 40c-2.63 0-5.21 1.07-7.07 2.93s-2.93 4.44-2.93 7.07 1.07 5.21 2.93 7.07 4.44 2.93 7.07 2.93 5.21-1.07 7.07-2.93 2.93-4.44 2.93-7.07-1.07-5.21-2.93-7.07-4.44-2.93-7.07-2.93z"/><path id="XMLID_878_" d="m64 40c-2.63 0-5.21 1.07-7.07 2.93s-2.93 4.44-2.93 7.07 1.07 5.21 2.93 7.07 4.44 2.93 7.07 2.93 5.21-1.07 7.07-2.93 2.93-4.44 2.93-7.07-1.07-5.21-2.93-7.07-4.44-2.93-7.07-2.93z"/><path id="XMLID_879_" d="m152 40c-2.63 0-5.21 1.07-7.07 2.93s-2.93 4.44-2.93 7.07 1.07 5.21 2.93 7.07 4.44 2.93 7.07 2.93 5.21-1.07 7.07-2.93 2.93-4.44 2.93-7.07-1.07-5.21-2.93-7.07-4.44-2.93-7.07-2.93z"/><path id="XMLID_1298_" d="m256.085 250c-32.999 0-59.846 26.847-59.846 59.846s26.847 59.846 59.846 59.846c33 0 59.846-26.847 59.846-59.846.001-32.999-26.846-59.846-59.846-59.846zm0 99.692c-21.971 0-39.846-17.875-39.846-39.846s17.875-39.846 39.846-39.846 39.846 17.875 39.846 39.846-17.874 39.846-39.846 39.846z"/><path id="XMLID_1579_" d="m502 240c-2.63 0-5.21 1.07-7.07 2.93s-2.93 4.44-2.93 7.07 1.07 5.21 2.93 7.07 4.44 2.93 7.07 2.93 5.21-1.07 7.07-2.93 2.93-4.44 2.93-7.07-1.07-5.21-2.93-7.07-4.44-2.93-7.07-2.93z"/></svg>