<svg height="512" viewBox="0 0 192 192" width="512" xmlns="http://www.w3.org/2000/svg" xmlns:xlink="http://www.w3.org/1999/xlink"><linearGradient id="New_Gradient_Swatch_1" gradientUnits="userSpaceOnUse" x1="64.732" x2="127.268" y1="132.66" y2="70.124"><stop offset="0" stop-color="#34cdfa"/><stop offset="1" stop-color="#e8d9f1"/></linearGradient><rect fill="#e6f9fe" height="168" rx="8" width="192" y="16"/><path d="m32 168a8 8 0 0 1 -8-8v-144h-16a8 8 0 0 0 -8 8v152a8 8 0 0 0 8 8h176a8 8 0 0 0 8-8v-8z" fill="#ccf2fe"/><path d="m184 16h-176a8 8 0 0 0 -8 8v24h192v-24a8 8 0 0 0 -8-8z" fill="#34cdfa"/><path d="m32 16h-24a8 8 0 0 0 -8 8v24h24v-24a8 8 0 0 1 8-8z" fill="#01c0f9"/><path d="m128 112-27.113 16.77a16.02 16.02 0 1 0 10.343 10.343zm-32 40a8 8 0 1 1 8-8 8.009 8.009 0 0 1 -8 8z" fill="#34cdfa"/><path d="m96 72a79.707 79.707 0 0 0 -62.219 29.709l12.438 10.065a64.006 64.006 0 0 1 99.562 0l12.438-10.065a79.705 79.705 0 0 0 -62.219-29.709z" fill="url(#New_Gradient_Swatch_1)"/><g fill="#ccf2fe"><circle cx="176" cy="32" r="8"/><circle cx="152" cy="32" r="8"/><circle cx="128" cy="32" r="8"/></g></svg>